<svg xmlns="http://www.w3.org/2000/svg" viewBox="0 0 800 520" role="img"><defs><linearGradient id="sky" x1="0" y1="0" x2="0" y2="1"><stop offset="0" stop-color="#EEF1FB"/><stop offset="1" stop-color="#CBD4EE"/></linearGradient></defs><rect width="800" height="520" fill="url(#sky)"/><rect y="470" width="800" height="50" fill="#141743"/><rect x="46" y="270" width="28" height="200" fill="#141743"/><polygon points="20,262 100,262 90,282 30,282" fill="#141743"/><rect x="206" y="270" width="28" height="200" fill="#141743"/><polygon points="180,262 260,262 250,282 190,282" fill="#141743"/><rect x="366" y="270" width="28" height="200" fill="#141743"/><polygon points="340,262 420,262 410,282 350,282" fill="#141743"/><rect x="526" y="270" width="28" height="200" fill="#141743"/><polygon points="500,262 580,262 570,282 510,282" fill="#141743"/><rect x="686" y="270" width="28" height="200" fill="#141743"/><polygon points="660,262 740,262 730,282 670,282" fill="#141743"/><rect x="0" y="236" width="800" height="28" fill="#6B7394"/><rect x="0" y="262" width="800" height="8" fill="#141743"/><rect x="60" y="150" width="520" height="86" rx="22" fill="#F7F8FD" stroke="#141743" stroke-width="5"/><line x1="233.3" y1="152.0" x2="233.3" y2="234.0" stroke="#141743" stroke-width="3" /><line x1="406.6" y1="152.0" x2="406.6" y2="234.0" stroke="#141743" stroke-width="3" /><rect x="82" y="168" width="26" height="30" rx="5" fill="#8BA9C7"/><rect x="123" y="168" width="26" height="30" rx="5" fill="#8BA9C7"/><rect x="164" y="168" width="26" height="30" rx="5" fill="#8BA9C7"/><rect x="205" y="168" width="26" height="30" rx="5" fill="#8BA9C7"/><rect x="246" y="168" width="26" height="30" rx="5" fill="#8BA9C7"/><rect x="287" y="168" width="26" height="30" rx="5" fill="#8BA9C7"/><rect x="328" y="168" width="26" height="30" rx="5" fill="#8BA9C7"/><rect x="369" y="168" width="26" height="30" rx="5" fill="#8BA9C7"/><rect x="410" y="168" width="26" height="30" rx="5" fill="#8BA9C7"/><rect x="451" y="168" width="26" height="30" rx="5" fill="#8BA9C7"/><rect x="492" y="168" width="26" height="30" rx="5" fill="#8BA9C7"/><rect x="533" y="168" width="26" height="30" rx="5" fill="#8BA9C7"/><path d="M560 150 h80 q60 12 40 86 h-120z" fill="#141743"/><path d="M600 166 h40 q24 8 20 34 h-60z" fill="#8BA9C7"/><rect x="60" y="214" width="520" height="8" fill="#141743" opacity=".8"/><line x1="0.0" y1="120.0" x2="800.0" y2="120.0" stroke="#141743" stroke-width="2" /><line x1="120.0" y1="120.0" x2="120.0" y2="150.0" stroke="#141743" stroke-width="2" /><line x1="320.0" y1="120.0" x2="320.0" y2="150.0" stroke="#141743" stroke-width="2" /><line x1="520.0" y1="120.0" x2="520.0" y2="150.0" stroke="#141743" stroke-width="2" /><line x1="720.0" y1="120.0" x2="720.0" y2="150.0" stroke="#141743" stroke-width="2" /></svg>